<?xml version="1.0" encoding="utf-8"?>
<!-- Generator: Adobe Illustrator 16.0.0, SVG Export Plug-In . SVG Version: 6.00 Build 0)  -->
<!DOCTYPE svg PUBLIC "-//W3C//DTD SVG 1.1//EN" "http://www.w3.org/Graphics/SVG/1.1/DTD/svg11.dtd">
<svg version="1.1" id="Layer_1" xmlns="http://www.w3.org/2000/svg" xmlns:xlink="http://www.w3.org/1999/xlink" x="0px" y="0px"
	 width="75px" height="75px" viewBox="0 0 75 75" enable-background="new 0 0 75 75" xml:space="preserve">
<path fill="#010101" d="M59.222,2.25l-9.795-1.958c-0.898-0.181-1.788,0.389-1.997,1.289l-2.863,12.393H17.742
	c-0.485,0-0.947,0.207-1.271,0.568c-0.323,0.361-0.478,0.844-0.425,1.324l4.735,42.598c-3.811,3.818-6.827,9.479-3.471,13.716
	c1.343,1.698,3.297,2.596,5.649,2.596c3.963,0,8.024-2.498,9.177-3.265c0.461-0.308,0.991-0.709,1.476-1.227h17.434
	c0.87,0,1.599-0.651,1.695-1.516l5.882-52.903c0.052-0.481-0.103-0.963-0.425-1.324c-0.322-0.361-0.786-0.568-1.271-0.568H48.07
	L50.382,3.96l8.17,1.634c0.931,0.188,1.821-0.415,2.006-1.337C60.744,3.333,60.145,2.435,59.222,2.25z M43.78,17.383l-2.231,9.667
	c-0.009,0.037,0.004,0.071-0.002,0.108c-1.057-0.233-2.17-0.526-3.387-0.941c-9.166-3.115-14.616-1.278-17.464,0.604l-1.048-9.438
	H43.78z M22.96,71.363c-1.327,0-2.272-0.414-2.975-1.301c-2.794-3.523,3.433-9.42,3.7-9.668c0.52-0.487,1.147-0.984,1.869-0.984
	c1.083,0,2.526,1.071,4.066,3.017c1.477,1.865,2.198,3.471,2.034,4.523c-0.099,0.621-0.506,1.12-1.407,1.722
	C28.29,69.976,25.35,71.363,22.96,71.363z M49.521,66.875H35.072c0.037-0.799-0.098-1.635-0.406-2.517l1.756,0.568
	c0.174,0.056,0.351,0.084,0.523,0.084c0.72,0,1.389-0.461,1.623-1.183c0.289-0.896-0.203-1.856-1.098-2.145l-2.957-0.958
	l0.236-0.187c0.738-0.583,0.864-1.656,0.279-2.396c-0.582-0.739-1.652-0.865-2.394-0.279l-0.238,0.188l-0.254-3.098
	c-0.077-0.938-0.87-1.63-1.841-1.56c-0.938,0.078-1.636,0.9-1.559,1.84l0.149,1.824c-1.114-0.709-2.221-1.059-3.336-1.059
	c-0.58,0-1.104,0.104-1.587,0.262l-2.82-25.378c0.767-0.924,4.999-5.146,15.914-1.438c3.574,1.216,6.584,1.68,9.096,1.68
	c3.351,0,5.808-0.824,7.537-1.78L49.521,66.875z M55.024,17.383l-0.803,7.207c-0.151,0.218-2.609,3.524-9.312,3.067l2.374-10.275
	L55.024,17.383L55.024,17.383z"/>
<path fill="#010101" d="M26.441,66.208c-0.375,0.301-0.443,0.849-0.142,1.229c0.3,0.375,0.848,0.44,1.225,0.14
	c0.379-0.301,0.443-0.85,0.142-1.225C27.368,65.969,26.819,65.909,26.441,66.208z"/>
<path fill="#010101" d="M27.97,63.219c-0.481,0.07-0.809,0.512-0.741,0.992c0.073,0.479,0.519,0.805,0.994,0.734
	c0.477-0.072,0.81-0.513,0.736-0.991C28.887,63.478,28.45,63.147,27.97,63.219z"/>
<path fill="#010101" d="M30.295,65.638c-0.446-0.179-0.952,0.043-1.13,0.491c-0.18,0.449,0.04,0.951,0.488,1.133
	c0.45,0.178,0.956-0.042,1.134-0.487C30.96,66.324,30.744,65.816,30.295,65.638z"/>
</svg>
