<?xml version="1.0" encoding="utf-8"?>
<!-- Generator: Adobe Illustrator 16.0.0, SVG Export Plug-In . SVG Version: 6.00 Build 0)  -->
<!DOCTYPE svg PUBLIC "-//W3C//DTD SVG 1.1//EN" "http://www.w3.org/Graphics/SVG/1.1/DTD/svg11.dtd">
<svg version="1.1" id="Layer_1" xmlns="http://www.w3.org/2000/svg" xmlns:xlink="http://www.w3.org/1999/xlink" x="0px" y="0px"
	 width="75px" height="75px" viewBox="0 0 75 75" enable-background="new 0 0 75 75" xml:space="preserve">
<circle fill="#F37B21" cx="37.5" cy="36.875" r="36.875"/>
<path fill="#FFFFFF" d="M54.378,7.577L46.27,5.956c-0.742-0.15-1.479,0.322-1.653,1.067l-2.37,10.258H20.043
	c-0.402,0-0.784,0.171-1.052,0.47c-0.268,0.299-0.396,0.699-0.352,1.096l3.919,35.26c-3.154,3.16-5.651,7.847-2.873,11.353
	c1.111,1.406,2.729,2.148,4.676,2.148c3.28,0,6.641-2.067,7.596-2.702c0.381-0.255,0.82-0.587,1.221-1.015H47.61
	c0.72,0,1.322-0.54,1.402-1.256l4.869-43.789c0.043-0.398-0.086-0.797-0.353-1.096s-0.65-0.47-1.052-0.47h-7.331l1.913-8.289
	l6.763,1.353c0.771,0.156,1.508-0.343,1.661-1.107C55.637,8.473,55.141,7.729,54.378,7.577z M41.595,20.103l-1.846,8.002
	c-0.008,0.031,0.003,0.059-0.002,0.089c-0.875-0.193-1.796-0.436-2.804-0.779c-7.587-2.579-12.098-1.058-14.456,0.5l-0.867-7.812
	H41.595z M24.362,64.784c-1.099,0-1.88-0.343-2.463-1.077c-2.312-2.916,2.842-7.796,3.063-8.002c0.431-0.403,0.95-0.814,1.547-0.814
	c0.896,0,2.091,0.886,3.366,2.496c1.223,1.545,1.819,2.874,1.683,3.744c-0.082,0.514-0.418,0.928-1.165,1.425
	C28.773,63.636,26.34,64.784,24.362,64.784z M46.348,61.069h-11.96c0.031-0.661-0.081-1.354-0.335-2.084l1.453,0.47
	c0.145,0.048,0.291,0.07,0.433,0.07c0.596,0,1.15-0.382,1.344-0.979c0.239-0.741-0.168-1.536-0.909-1.775l-2.448-0.792l0.195-0.155
	c0.611-0.482,0.715-1.371,0.23-1.984c-0.481-0.61-1.367-0.716-1.981-0.23l-0.197,0.155l-0.21-2.563
	c-0.064-0.776-0.72-1.349-1.524-1.291c-0.776,0.064-1.354,0.745-1.29,1.523l0.124,1.51c-0.922-0.587-1.838-0.877-2.762-0.877
	c-0.479,0-0.914,0.086-1.313,0.216l-2.334-21.006c0.635-0.765,4.138-4.259,13.173-1.19c2.958,1.007,5.451,1.391,7.53,1.391
	c2.772,0,4.807-0.682,6.238-1.474L46.348,61.069z M50.902,20.103l-0.665,5.965c-0.124,0.181-2.16,2.917-7.707,2.54l1.965-8.505
	L50.902,20.103L50.902,20.103z"/>
<path fill="#FFFFFF" d="M27.243,60.518c-0.311,0.248-0.367,0.702-0.118,1.018c0.249,0.31,0.702,0.364,1.014,0.115
	c0.313-0.25,0.367-0.704,0.118-1.015C28.011,60.318,27.556,60.27,27.243,60.518z"/>
<path fill="#FFFFFF" d="M28.509,58.043c-0.398,0.058-0.67,0.423-0.614,0.821c0.06,0.396,0.43,0.665,0.823,0.607
	c0.395-0.06,0.67-0.425,0.609-0.82C29.268,58.258,28.907,57.983,28.509,58.043z"/>
<path fill="#FFFFFF" d="M30.433,60.046c-0.369-0.149-0.788,0.036-0.935,0.406c-0.149,0.371,0.033,0.787,0.404,0.938
	c0.373,0.147,0.792-0.034,0.939-0.403C30.984,60.613,30.805,60.192,30.433,60.046z"/>
</svg>
